<?xml version="1.0" encoding="utf-8"?>
<!-- Generator: Adobe Illustrator 25.3.0, SVG Export Plug-In . SVG Version: 6.00 Build 0)  -->
<svg version="1.1" id="Layer_1" xmlns="http://www.w3.org/2000/svg" xmlns:xlink="http://www.w3.org/1999/xlink" x="0px" y="0px"
	 viewBox="0 0 688.7 487.5" style="enable-background:new 0 0 688.7 487.5;" xml:space="preserve">
<style type="text/css">
	.st0{fill:#D63629;}
</style>
<g>
	<path class="st0" d="M688.5,447.6c-7-20.2-12.3-41-17.6-61.7c-4.8-17.8-8.4-35.9-13.1-53.7c-4.3-10.1-3.5-28.3-11.8-34.8
		c-30.3-8.6-60.8,5.8-90.2,12.4c-5.1,1.7,0.2,7.3,0.7,10.7c1.2,3.5,2.5,4,6.3,3.2c21.8-1.7,64.8-33,80-9.6
		c1.9,10.4,3.8,20.7,8.2,30.3c1.2,2.3,5.7,21.8-0.4,15.7c-13-16.8-33-25.9-53.2-15.5c-27.3,9.8-30.5,41.5-23.3,66
		c12.4,47,53.8,42.9,86.6,18.5c9.9-1.8-1.9,24.7,19.5,21.7C683.4,450.4,690,452.5,688.5,447.6z M623.9,433.5
		c-24.5,4.5-36.9-32.3-38.3-51.6c-0.7-18.6,16.6-33.8,34.7-32.8c27.4,4,38.2,26.3,39.3,51.6C660.1,418.4,637.7,427.3,623.9,433.5z"
		/>
	<path class="st0" d="M550.2,433.5C512,186.1,527.5,285,491.6,452.8c-10.3-36.9-18.2-74.5-27.9-111.6c-3.2-5.5-13.7-74.6-22.6-54.4
		c-0.5,50-20.1,97.6-24.1,147.2c-3.2,13.4,3,24.3,14.1,31.7c1.1,1,2.2,0.7,2.4-1c0.5-30.9,1.1-62.4,8.8-92.6
		c2.6-8.4,4.7-18.3,8.8-25.6c5.4,13.5,7.5,29.3,11.6,43.5c5.2,10.2,21.3,120.4,37.4,78c14.6-44.5,16.5-91.8,22.1-137.9
		c0-0.7,0.4-2.9,1.4-2c6.4,20.1,9,41.3,12.3,62.1c3.1,25.2,5.4,50.4,5,75.8c-0.1,2.9,0.6,3.5,3.5,3.2c3.6-1.5,12.9,0.7,12.2-5
		C554.3,454,552.4,443.7,550.2,433.5z"/>
	<path class="st0" d="M392,410.1c-5.8,6.8-11.4,13.6-17.8,19.8c-19.1,11.7-52.6-14.1-65.4-28.6c-8.9-9.6-12.8-26.8,2.2-32.6
		c24.4-15,53-20.4,79.4-30.7c8.2-1.4-21.1-27.1-24.2-30.4c-11.1-9.2-23.2-15.5-40.3-15.3c-35.4,0.4-53.8,39.5-42.8,70.2
		c3.2,14.9-1.4,33.6,12.1,44.1c20.5,17.6,45.1,29.1,68.7,41.9c6.4,3.3,27.6-22,34.1-27c4.5-4.7,4.8-5.8,1.2-11
		C395.7,405.2,396.5,404.7,392,410.1z M330.3,309.4c14.4-1.2,29,9.3,37.5,20.9c1,1.2,0.8,2.2-0.4,2.9c-16.4,7.3-32.9,14.4-49.2,21.9
		c-4.7,0.9-14.7,9-18,5.4C291.4,339.1,303.4,307.5,330.3,309.4z"/>
	<path class="st0" d="M211.3,355.5c-28-10.2-13.2-82.1,37.3-41.2c3.4,2,4.1,1.6,4.5-2.3c4-16.6-28.8-21.1-40.6-18.3
		c-29.6,7-32,56.4-6.2,68.3c27.8,7.8,54.4,9.9,48.8,47.2c-1.8,16.2-15.2,28.2-32.3,23.4c-22-1.4-26.3-42.6,1.2-37
		c12.6,0.7,15.4,16.5,17.6,8.8c0.2-3.6,5.6-10.2,0-11.4c-64.9-24.1-65.9,57.5-6,55.9c6.8-0.4,18.8,1.7,21.5-6.8
		c5.9-14.5,10.7-29.9,9-45.9C265.3,366.8,234.6,360,211.3,355.5z"/>
	<path class="st0" d="M116.9,296.5c-20,16.2-22.4,45.7-22.5,69.7c0.6,24.7,2.4,51.9,17.1,72.7c9.2,13.3,28.9,16.5,42.3,7.8
		c25.2-19.9,24.8-57.2,22.6-86.5C175.9,329,155.2,280.9,116.9,296.5z M164.3,370.9L164.3,370.9c-1.5,19.3,0.3,39.4-5.8,58
		c-3.4,10-20.1,19.3-30.1,15.3c-24.8-15.7-21.8-52.4-23.9-78.3C110.5,280.7,167.3,286.4,164.3,370.9z"/>
	<path class="st0" d="M73.6,415.4c-2.3-5.4-31.9-34.2-26.3-34.8c21.8,0.1,39.3-20,37.4-41.4c2.8-33.9-34.3-47.2-62.4-42.3
		c-1.6,0-2.6-0.2-3-2.1c-2-7.7-12-1.5-17.4-1.9c-4.7,2.2,1.4,15.3,1,20.4c3.3,20.2,7.1,40.5,7.2,61c0.2,25.7-4.4,51.2-6,76.8
		c0.6,5.3-3.9,15,1.1,18.1c4.3,0,10.8-1.4,13-6.8c4.9-18.8,0.1-38.9-0.2-58.1c1-4.2-2.9-22.8,1.1-22.8c31.5-9.1,49.6,48.3,63.8,69.9
		c5.4,10.3,10.5,20.9,15.8,31.2c3.3,6.4,3.4,6.3,8.3,0.9c4.4-4.9,4.5-5.7,1.1-11.3C96.8,453.3,86.5,433.4,73.6,415.4z M19.4,375.8
		c-5.2-0.8-1.5-9.5-2.5-13.4c1.8-19.4-0.7-42.1,4.2-59.8c17.4-4.4,41.1-2.2,46.5,18.2c2.2,17.3,6.3,44.6-14.9,51
		C41.8,375.2,30.6,375.2,19.4,375.8z"/>
</g>
<g>
	<path class="st0" d="M478.4,81.9C461,49,429.7,16,389.1,23.8c-9.2,1.3-18.5-0.4-27.4,3.3c-4,0.6-3.2,6.1,0.7,5.9
		c6.5-0.1,11.3,5.2,15.5,9.5c0.9,0.4,0.2,1.7-0.5,0.9c-5.9-3.5-11.9-6.4-18.7-7.6c-26.6-5.9-53.8,11.6-65.3,35.2
		c-8,15.9-11.3,36.4-0.3,51.7c1.4,2.3,3.8,2.5,6.1,2.3c4.9-2,4.5-9.7,7.4-13.8c9.4-19.4,16.9-49,42.1-51.8
		c28.5,1.6,34.2,34.6,29.5,57.4c0,0.8,0.2,1.6,0.6,2.3c1.3,2.3,4.3,3.1,6.6,1.8c5.9-5.4,6.6-14.8,9.6-22c1.4-4,2.3-8.2,2.6-12.5
		c0.6-8.9-1.4-17.8-4.9-26.7c6.8,9.5,13.5,19.3,20.7,28.6c9.2,11.9,19.4,23,32,31.6c5.4,3.8,10.2,8.2,14.4,13.3
		c4.4,3.9,8.4,19.5,15.6,12.5C487.3,127.1,489.1,101.3,478.4,81.9z"/>
	<path class="st0" d="M432,137.1c-20.9,15.4-35.7,36.5-52.2,56c-19.9,18.9-16.9,21.5,9.1,20.7c34.5-0.2,54.8-12.1,66.3-41.7
		c5.8-14.6,1.7-32-9.4-43C438.6,123,436.7,134.1,432,137.1z"/>
	<path class="st0" d="M405.2,146.1c12.3,1.3,20-10.8,20.8-21.6c1-13.1-5.7-25.2-13.8-35.3c-1.4-1.7-2.8-3.4-4.3-5
		c-2.6-3.7-8-1.3-8,2.4c0,0.6,0.1,1.1,0.4,1.7c3.1,9.2-0.2,19.3-3.4,28C388.8,130.1,382.9,145.4,405.2,146.1z"/>
	<path class="st0" d="M273.4,63c6.3-2.9,12.7-5.8,19-9c10.4-5.9,22-9.6,32.1-15.9c16.7-10.5,39.9-23.3,60-18
		c2.5,0.5,4.2-0.5,4.9-2.9c1-5.5-6.5-6.3-10.1-8.3C365,3,350,1.7,334.8,1.9c-36.4-2.8-71.5,17.8-85.5,51.8
		c-10.5,14.5-11.6,34-4.4,50.4C255.2,116.3,247.7,71.7,273.4,63z"/>
	<path class="st0" d="M348.9,213.9c-24.4-4.2-48.7,2.5-73.3,1.4c-9.2-0.3-18.3-1.5-26.8-5.2c-4.5-2.8-8.4,2.6-4.4,5.9
		c19.5,23.4,32.6,33.6,64.3,33.8c15.9,0.7,31.8-1.5,46.8-6.7c6.9-3.6,32.4-8.3,30.2-17.7C384.3,216.2,357.2,216.5,348.9,213.9z"/>
	<path class="st0" d="M331.8,171.1c-10.8,2.4-21.6,2-32.4,0c-4.6-1-13.1-10.3-14.4-1.1c7.4,23.6,34.2,40.3,58.9,37
		c24-2.6,47.9-23.6,49.1-48.3C389.8,107.3,360.6,169,331.8,171.1z"/>
	<path class="st0" d="M368.4,108.2c-6.8,14.9-22.8,24.7-37.6,30.8c-20.6,5.2-5.8,11.4,5.9,10.4c24.4,1.1,42-18.2,37-41.1
		C373.8,104,368.9,104.3,368.4,108.2z"/>
	<path class="st0" d="M348.1,68.9c-7.9,0.2-16.7,2.4-20.5,10.1c-2.7,5.4,0,10.2,6,10.7c8,1.1,30.9-9.9,27.1,6.1
		c-1.2,5.1-2,10.3-2.2,15.5c-0.6,3.8,4,4.8,5,1.2C374.8,87.8,382.3,74.1,348.1,68.9z"/>
	<path class="st0" d="M341.9,94.6c-5.6,3.4,5.6,8.5,8.9,8.1c6,1,9.9-6.6,5.6-10.8C352,87.8,346.4,93.1,341.9,94.6z"/>
	<path class="st0" d="M276.7,70.3c-40.3,29.9-8.3,100.9,39.3,98.1c9.5-1.7,18.8-4,26.7-9.7c1.7-1.1,3.1-2.6,2.2-4.9
		c-1.9-4.1-7.2-1.8-10.7-1.8c-27.6-1.9-53.9-18.8-53.4-49c-0.5-9.6,0-19.2,1.3-28.8C283.4,70.3,279.9,67.3,276.7,70.3z"/>
	<path class="st0" d="M314.3,99.6c-2.1,9.7-24.2,39.9-3.1,39.1c15.3,1.1,60.4-24.1,31-36.1c-6.7-2.2-13.4-4.2-18.9-9
		C319.7,91,315.8,96.8,314.3,99.6z"/>
	<path class="st0" d="M301.1,211.7c12.8,1.2,6.8-9.6-0.3-12.8c-5.8-2.3-9.2-7.2-12.8-12c-10.6-16.4-16.3-35.6-28.4-51.2
		c-12.6-19.6-27.7-40.7-25.1-65c-0.5-5.3-5.8-0.9-7.8,1c-21.9,14.9-26.4,52.5-17,76c8.2,21.1,24.3,38.2,44.9,47.5
		C269.7,201.4,284.4,210.7,301.1,211.7z"/>
</g>
</svg>
